<?xml version="1.0" standalone="no"?><!DOCTYPE svg PUBLIC "-//W3C//DTD SVG 1.1//EN" "http://www.w3.org/Graphics/SVG/1.1/DTD/svg11.dtd"><svg t="1678604509192" class="icon" viewBox="0 0 1024 1024" version="1.1" xmlns="http://www.w3.org/2000/svg" p-id="17539" xmlns:xlink="http://www.w3.org/1999/xlink" width="200" height="200"><path d="M512 512m-406.016 0a406.016 406.016 0 1 0 812.032 0 406.016 406.016 0 1 0-812.032 0Z" fill="#FF7901" p-id="17540"></path><path d="M512 921.6c-225.85344 0-409.6-183.74656-409.6-409.6S286.14656 102.4 512 102.4s409.6 183.74656 409.6 409.6-183.74656 409.6-409.6 409.6z m0-812.032C290.0992 109.568 109.568 290.0992 109.568 512S290.0992 914.432 512 914.432 914.432 733.9008 914.432 512 733.9008 109.568 512 109.568z" fill="#FFB600" p-id="17541"></path><path d="M512 512m-389.95968 0a389.95968 389.95968 0 1 0 779.91936 0 389.95968 389.95968 0 1 0-779.91936 0Z" fill="#FEF3C6" p-id="17542"></path><path d="M219.648 292.88448c-36.9664 49.21344-61.78816 108.05248-70.02112 172.09344-3.01056 23.32672 15.03232 44.05248 38.56384 44.05248h289.5872c7.61856 0 11.42784-9.216 6.0416-14.60224l-205.6192-205.59872c-16.6912-16.71168-44.38016-14.848-58.55232 4.05504zM460.6976 150.24128c-64.49152 9.05216-123.57632 34.9184-172.66688 73.03168-18.47296 14.35648-20.15232 41.6768-3.62496 58.22464l206.17216 206.17216c5.38624 5.38624 14.60224 1.57696 14.60224-6.0416v-292.864c0-23.69536-21.01248-41.82016-44.48256-38.52288zM733.3888 221.32736c-49.70496-37.92896-109.44512-63.3856-174.53056-71.72096-23.36768-2.99008-44.11392 15.03232-44.11392 38.58432v293.43744c0 7.61856 9.216 11.42784 14.60224 6.0416L737.25952 279.7568c16.62976-16.62976 14.82752-44.15488-3.87072-58.42944zM874.35264 464.896c-8.37632-65.1264-33.91488-124.84608-71.90528-174.57152-14.27456-18.67776-41.7792-20.48-58.40896-3.85024L536.08448 494.42816c-5.38624 5.38624-1.57696 14.60224 6.0416 14.60224h293.64224c23.57248 0 41.59488-20.76672 38.58432-44.1344zM290.28352 802.42688c48.66048 37.19168 106.92608 62.42304 170.45504 71.35232 23.4496 3.29728 44.4416-14.848 44.4416-38.52288V544.93184c0-7.22944-8.74496-10.8544-13.86496-5.7344L286.49472 744.0384c-16.60928 16.60928-14.86848 44.11392 3.7888 58.38848zM150.20032 562.9952c8.86784 63.488 34.03776 121.7536 71.168 170.41408 14.25408 18.69824 41.7792 20.43904 58.40896 3.82976l204.06272-204.06272c5.38624-5.38624 1.57696-14.60224-6.0416-14.60224H188.7232c-23.67488 0.02048-41.79968 20.992-38.52288 44.42112zM558.77632 874.41408c64.14336-8.21248 123.06432-33.03424 172.3392-70.06208 18.88256-14.19264 20.74624-41.8816 4.05504-58.5728L529.32608 539.93472c-5.38624-5.38624-14.60224-1.57696-14.60224 6.0416v289.85344c0.02048 23.53152 20.72576 41.55392 44.05248 38.58432zM536.08448 533.17632l206.39744 206.39744c16.54784 16.54784 43.88864 14.86848 58.24512-3.62496 38.17472-49.152 64.04096-108.31872 73.05216-172.87168 3.2768-23.47008-14.82752-44.48256-38.54336-44.48256H542.12608c-7.61856 0-11.42784 9.19552-6.0416 14.58176z" fill="#FAA90F" p-id="17543"></path><path d="M319.05792 220.34432v23.92064c0 1.45408 0.63488 2.82624 1.7408 3.7888l17.2032 14.86848c3.23584 2.80576 8.27392 0.49152 8.27392-3.7888v-25.74336c0-1.55648-0.73728-3.03104-1.98656-3.9936l-17.2032-13.04576c-3.29728-2.47808-8.02816-0.12288-8.02816 3.9936zM374.70208 274.57536v21.07392c0 1.26976 0.63488 2.49856 1.7408 3.33824l17.2032 13.08672c3.23584 2.4576 8.27392 0.43008 8.27392-3.33824v-22.67136c0-1.37216-0.73728-2.68288-1.98656-3.50208l-17.2032-11.4688c-3.29728-2.23232-8.02816-0.16384-8.02816 3.4816zM309.98528 280.28928v21.07392c0 1.26976 0.63488 2.49856 1.7408 3.33824l17.2032 13.08672c3.23584 2.4576 8.27392 0.43008 8.27392-3.33824v-22.67136c0-1.37216-0.73728-2.68288-1.98656-3.50208l-17.2032-11.4688c-3.29728-2.21184-8.02816-0.14336-8.02816 3.4816zM384.18432 183.54176v33.19808c0 2.00704 0.63488 3.93216 1.7408 5.24288l17.2032 20.62336c3.23584 3.87072 8.27392 0.69632 8.27392-5.24288V201.6256c0-2.17088-0.73728-4.21888-1.98656-5.5296l-17.2032-18.08384c-3.29728-3.46112-8.02816-0.2048-8.02816 5.5296zM430.96064 249.97888v27.136c0 1.6384 0.47104 3.21536 1.26976 4.28032l12.63616 16.85504c2.37568 3.1744 6.08256 0.55296 6.08256-4.28032v-29.20448c0-1.78176-0.53248-3.44064-1.45408-4.52608l-12.63616-14.78656c-2.41664-2.82624-5.89824-0.16384-5.89824 4.52608zM479.90784 278.20032l-1.78176 27.07456c-0.1024 1.6384 0.16384 3.23584 0.73728 4.34176l9.0112 17.48992c1.69984 3.29728 4.8128 0.88064 5.14048-3.95264l1.92512-29.14304c0.12288-1.76128-0.2048-3.46112-0.86016-4.58752l-9.13408-15.42144c-1.78176-2.94912-4.73088-0.47104-5.03808 4.1984zM428.48256 318.81216v27.136c0 1.6384 0.47104 3.21536 1.26976 4.28032l12.63616 16.85504c2.37568 3.1744 6.08256 0.55296 6.08256-4.28032v-29.20448c0-1.78176-0.53248-3.44064-1.45408-4.52608l-12.63616-14.78656c-2.41664-2.82624-5.89824-0.16384-5.89824 4.52608zM476.52864 357.96992v27.136c0 1.6384 0.47104 3.21536 1.26976 4.28032l12.63616 16.85504c2.37568 3.1744 6.08256 0.55296 6.08256-4.28032v-29.20448c0-1.78176-0.53248-3.44064-1.45408-4.52608l-12.63616-14.78656c-2.41664-2.82624-5.89824-0.16384-5.89824 4.52608zM476.52864 429.32224v17.87904c0 1.08544 0.3072 2.10944 0.83968 2.82624l8.33536 11.10016c1.57696 2.08896 3.9936 0.36864 3.9936-2.82624v-19.23072c0-1.16736-0.34816-2.27328-0.96256-2.9696l-8.33536-9.728c-1.57696-1.88416-3.87072-0.14336-3.87072 2.94912zM368.31232 321.29024v27.136c0 1.6384 0.47104 3.21536 1.26976 4.28032l12.63616 16.85504c2.37568 3.1744 6.08256 0.55296 6.08256-4.28032V336.0768c0-1.78176-0.53248-3.44064-1.45408-4.52608l-12.63616-14.78656c-2.41664-2.82624-5.89824-0.16384-5.89824 4.52608zM412.22144 378.71616l11.48928 24.576c0.69632 1.49504 1.61792 2.78528 2.49856 3.56352l13.9264 12.10368c2.62144 2.27328 3.50208-1.00352 1.45408-5.40672l-12.34944-26.46016c-0.75776-1.59744-1.7408-2.99008-2.68288-3.72736l-13.04576-10.21952c-2.53952-1.9456-3.2768 1.3312-1.29024 5.57056zM469.504 183.54176v33.19808c0 2.00704 0.43008 3.93216 1.20832 5.24288l11.91936 20.62336c2.2528 3.87072 5.7344 0.69632 5.7344-5.24288V201.6256c0-2.17088-0.512-4.21888-1.37216-5.5296l-11.91936-18.08384c-2.29376-3.46112-5.57056-0.2048-5.57056 5.5296z" fill="#FAC80F" p-id="17544"></path><path d="M586.36288 173.79328l-16.91648 16.91648c-1.024 1.024-1.55648 2.4576-1.45408 3.8912l1.65888 22.67136c0.3072 4.25984 5.48864 6.18496 8.51968 3.1744l18.20672-18.20672c1.10592-1.10592 1.6384-2.6624 1.41312-4.21888l-2.94912-21.38112c-0.57344-4.07552-5.57056-5.75488-8.47872-2.84672zM587.3664 251.4944l-14.88896 14.88896c-0.90112 0.90112-1.31072 2.21184-1.1264 3.584l2.90816 21.42208c0.55296 4.03456 5.5296 6.144 8.192 3.4816l16.03584-16.03584c0.98304-0.98304 1.37216-2.41664 1.08544-3.87072l-4.05504-20.2752c-0.77824-3.8912-5.59104-5.77536-8.15104-3.19488zM537.55904 209.77664l-14.88896 14.88896c-0.90112 0.90112-1.31072 2.21184-1.1264 3.584l2.90816 21.42208c0.55296 4.03456 5.5296 6.144 8.192 3.4816l16.03584-16.03584c0.98304-0.98304 1.37216-2.41664 1.08544-3.87072l-4.05504-20.2752c-0.77824-3.8912-5.57056-5.77536-8.15104-3.19488zM658.432 193.82272l-23.47008 23.47008c-1.4336 1.4336-2.33472 3.23584-2.47808 4.93568l-2.41664 26.74688c-0.45056 5.03808 5.36576 6.32832 9.56416 2.12992l25.25184-25.25184c1.536-1.536 2.4576-3.50208 2.49856-5.30432l0.6144-24.96512c0.12288-4.77184-5.50912-5.81632-9.56416-1.76128zM644.54656 273.87904l-19.18976 19.18976c-1.16736 1.16736-1.9456 2.60096-2.12992 3.93216l-2.9696 20.84864c-0.55296 3.93216 3.8912 4.68992 7.33184 1.26976l20.64384-20.64384c1.24928-1.24928 2.048-2.82624 2.17088-4.21888l1.51552-19.39456c0.26624-3.72736-4.07552-4.3008-7.3728-0.98304zM659.18976 328.45824l-20.39808 17.87904c-1.2288 1.08544-2.17088 2.39616-2.56 3.584l-6.00064 18.7392c-1.1264 3.52256 2.78528 4.03456 6.43072 0.83968l21.95456-19.2512c1.3312-1.16736 2.31424-2.60096 2.62144-3.85024l4.44416-17.36704c0.86016-3.33824-2.9696-3.66592-6.49216-0.57344zM594.1248 320.79872l-19.18976 19.18976c-1.16736 1.16736-1.9456 2.60096-2.12992 3.93216l-2.9696 20.84864c-0.55296 3.93216 3.8912 4.68992 7.33184 1.26976l20.64384-20.64384c1.24928-1.24928 2.048-2.82624 2.17088-4.21888l1.51552-19.39456c0.26624-3.72736-4.07552-4.28032-7.3728-0.98304zM600.39168 382.464l-19.18976 19.18976c-1.16736 1.16736-1.9456 2.60096-2.12992 3.93216l-2.9696 20.84864c-0.55296 3.93216 3.8912 4.68992 7.33184 1.26976l20.64384-20.64384c1.24928-1.24928 2.048-2.82624 2.17088-4.21888l1.51552-19.39456c0.28672-3.72736-4.05504-4.3008-7.3728-0.98304zM549.94944 432.90624l-12.63616 12.63616c-0.75776 0.75776-1.26976 1.72032-1.41312 2.58048l-1.96608 13.74208c-0.36864 2.58048 2.56 3.09248 4.83328 0.83968l13.59872-13.59872c0.8192-0.8192 1.35168-1.86368 1.4336-2.78528l1.00352-12.77952c0.18432-2.43712-2.68288-2.80576-4.85376-0.63488zM549.80608 280.00256l-19.18976 19.18976c-1.16736 1.16736-1.9456 2.60096-2.12992 3.93216l-2.9696 20.84864c-0.55296 3.93216 3.8912 4.68992 7.33184 1.26976l20.64384-20.64384c1.24928-1.24928 2.048-2.82624 2.17088-4.21888l1.51552-19.39456c0.28672-3.72736-4.05504-4.3008-7.3728-0.98304zM540.24192 351.66208l-9.25696 25.4976c-0.55296 1.55648-0.83968 3.11296-0.75776 4.28032l1.29024 18.39104c0.24576 3.46112 3.19488 1.76128 4.85376-2.80576l9.97376-27.4432c0.6144-1.65888 0.88064-3.33824 0.73728-4.54656l-2.00704-16.44544c-0.38912-3.13344-3.23584-1.3312-4.83328 3.072zM718.76608 254.1568l-23.47008 23.47008c-1.4336 1.4336-2.47808 3.09248-2.8672 4.56704l-6.144 23.01952c-1.14688 4.32128 3.56352 4.54656 7.76192 0.34816l25.25184-25.25184c1.536-1.536 2.62144-3.33824 2.92864-4.87424l4.36224-21.21728c0.83968-4.096-3.76832-4.11648-7.82336-0.06144z" fill="#FAC80F" p-id="17545"></path><path d="M801.75104 328.25344H777.8304c-1.45408 0-2.82624 0.63488-3.7888 1.7408l-14.86848 17.2032c-2.80576 3.23584-0.49152 8.27392 3.7888 8.27392h25.74336c1.55648 0 3.03104-0.73728 3.9936-1.98656l13.04576-17.2032c2.47808-3.29728 0.12288-8.02816-3.9936-8.02816zM747.52 383.8976h-21.07392c-1.26976 0-2.49856 0.63488-3.33824 1.7408l-13.08672 17.2032c-2.4576 3.23584-0.43008 8.27392 3.33824 8.27392h22.67136c1.37216 0 2.68288-0.73728 3.50208-1.98656l11.4688-17.2032c2.23232-3.29728 0.16384-8.02816-3.4816-8.02816zM741.80608 319.20128h-21.07392c-1.26976 0-2.49856 0.63488-3.33824 1.7408l-13.08672 17.2032c-2.4576 3.23584-0.43008 8.27392 3.33824 8.27392h22.67136c1.37216 0 2.68288-0.73728 3.50208-1.98656l11.4688-17.2032c2.21184-3.31776 0.14336-8.02816-3.4816-8.02816zM838.5536 393.37984h-33.19808c-2.00704 0-3.93216 0.63488-5.24288 1.7408l-20.62336 17.2032c-3.87072 3.23584-0.69632 8.27392 5.24288 8.27392h35.71712c2.17088 0 4.21888-0.73728 5.5296-1.98656l18.08384-17.2032c3.4816-3.29728 0.2048-8.02816-5.50912-8.02816zM772.11648 440.17664h-27.136c-1.6384 0-3.21536 0.47104-4.28032 1.26976l-16.85504 12.63616c-3.1744 2.37568-0.55296 6.08256 4.28032 6.08256h29.20448c1.78176 0 3.44064-0.53248 4.52608-1.45408l14.78656-12.63616c2.82624-2.43712 0.16384-5.89824-4.52608-5.89824zM743.89504 489.12384l-27.07456-1.78176c-1.6384-0.1024-3.23584 0.16384-4.34176 0.73728l-17.48992 9.0112c-3.29728 1.69984-0.88064 4.8128 3.95264 5.14048l29.14304 1.92512c1.76128 0.12288 3.46112-0.2048 4.58752-0.86016l15.42144-9.13408c2.94912-1.78176 0.47104-4.73088-4.1984-5.03808zM703.2832 437.69856h-27.136c-1.6384 0-3.21536 0.47104-4.28032 1.26976l-16.85504 12.63616c-3.1744 2.37568-0.55296 6.08256 4.28032 6.08256h29.20448c1.78176 0 3.44064-0.53248 4.52608-1.45408l14.78656-12.63616c2.82624-2.43712 0.16384-5.89824-4.52608-5.89824zM664.12544 485.74464h-27.136c-1.6384 0-3.21536 0.47104-4.28032 1.26976l-16.85504 12.63616c-3.1744 2.37568-0.55296 6.08256 4.28032 6.08256h29.20448c1.78176 0 3.44064-0.53248 4.52608-1.45408l14.78656-12.63616c2.82624-2.43712 0.16384-5.89824-4.52608-5.89824zM592.77312 485.74464h-17.87904c-1.08544 0-2.10944 0.3072-2.82624 0.83968l-11.10016 8.33536c-2.08896 1.57696-0.36864 3.9936 2.82624 3.9936h19.23072c1.16736 0 2.27328-0.34816 2.9696-0.96256l9.728-8.33536c1.88416-1.59744 0.14336-3.87072-2.94912-3.87072zM700.80512 377.50784h-27.136c-1.6384 0-3.21536 0.47104-4.28032 1.26976l-16.85504 12.63616c-3.1744 2.37568-0.55296 6.08256 4.28032 6.08256h29.20448c1.78176 0 3.44064-0.53248 4.52608-1.45408l14.78656-12.63616c2.82624-2.41664 0.16384-5.89824-4.52608-5.89824zM643.3792 421.41696l-24.576 11.48928c-1.49504 0.69632-2.78528 1.61792-3.56352 2.49856l-12.10368 13.9264c-2.27328 2.62144 1.00352 3.50208 5.40672 1.45408l26.46016-12.34944c1.59744-0.75776 2.99008-1.7408 3.72736-2.68288l10.21952-13.04576c1.9456-2.51904-1.3312-3.25632-5.57056-1.29024zM838.5536 478.69952h-33.19808c-2.00704 0-3.93216 0.43008-5.24288 1.20832l-20.62336 11.91936c-3.87072 2.2528-0.69632 5.7344 5.24288 5.7344h35.71712c2.17088 0 4.21888-0.512 5.5296-1.37216l18.08384-11.91936c3.4816-2.29376 0.2048-5.57056-5.50912-5.57056z" fill="#FAC80F" opacity=".5" p-id="17546"></path><path d="M850.8416 587.73504l-16.91648-16.91648c-1.024-1.024-2.4576-1.55648-3.8912-1.45408l-22.67136 1.65888c-4.25984 0.3072-6.18496 5.48864-3.1744 8.51968l18.20672 18.20672c1.10592 1.10592 2.6624 1.6384 4.21888 1.41312l21.38112-2.94912c4.096-0.57344 5.77536-5.57056 2.84672-8.47872zM773.16096 588.73856l-14.88896-14.88896c-0.90112-0.90112-2.21184-1.31072-3.584-1.1264l-21.42208 2.90816c-4.03456 0.55296-6.144 5.5296-3.4816 8.192l16.03584 16.03584c0.98304 0.98304 2.41664 1.37216 3.87072 1.08544l20.2752-4.05504c3.8912-0.77824 5.75488-5.59104 3.19488-8.15104zM814.87872 538.9312l-14.88896-14.88896c-0.90112-0.90112-2.21184-1.31072-3.584-1.1264l-21.42208 2.90816c-4.03456 0.55296-6.144 5.5296-3.4816 8.192l16.03584 16.03584c0.98304 0.98304 2.41664 1.37216 3.87072 1.08544l20.2752-4.05504c3.87072-0.77824 5.75488-5.57056 3.19488-8.15104zM830.81216 659.80416l-23.47008-23.47008c-1.4336-1.4336-3.23584-2.33472-4.93568-2.47808l-26.74688-2.41664c-5.03808-0.45056-6.32832 5.36576-2.12992 9.56416l25.25184 25.25184c1.536 1.536 3.50208 2.4576 5.30432 2.49856l24.96512 0.6144c4.79232 0.12288 5.81632-5.50912 1.76128-9.56416zM750.75584 645.91872l-19.18976-19.18976c-1.16736-1.16736-2.60096-1.9456-3.93216-2.12992l-20.84864-2.9696c-3.93216-0.55296-4.68992 3.8912-1.26976 7.33184l20.64384 20.64384c1.24928 1.24928 2.82624 2.048 4.21888 2.17088l19.39456 1.51552c3.72736 0.26624 4.3008-4.07552 0.98304-7.3728zM696.19712 660.56192l-17.87904-20.39808c-1.08544-1.2288-2.39616-2.17088-3.584-2.56l-18.7392-6.00064c-3.52256-1.1264-4.03456 2.78528-0.83968 6.43072l19.2512 21.95456c1.16736 1.3312 2.60096 2.31424 3.85024 2.62144l17.36704 4.44416c3.31776 0.86016 3.66592-2.9696 0.57344-6.49216zM703.83616 595.49696l-19.18976-19.18976c-1.16736-1.16736-2.60096-1.9456-3.93216-2.12992l-20.84864-2.9696c-3.93216-0.55296-4.68992 3.8912-1.26976 7.33184l20.64384 20.64384c1.24928 1.24928 2.82624 2.048 4.21888 2.17088l19.39456 1.51552c3.72736 0.26624 4.3008-4.07552 0.98304-7.3728zM642.19136 601.76384l-19.18976-19.18976c-1.16736-1.16736-2.60096-1.9456-3.93216-2.12992l-20.84864-2.9696c-3.93216-0.55296-4.68992 3.8912-1.26976 7.33184l20.64384 20.64384c1.24928 1.24928 2.82624 2.048 4.21888 2.17088l19.39456 1.51552c3.70688 0.28672 4.28032-4.05504 0.98304-7.3728zM591.72864 551.3216l-12.63616-12.63616c-0.75776-0.75776-1.72032-1.26976-2.58048-1.41312l-13.74208-1.96608c-2.58048-0.36864-3.09248 2.56-0.83968 4.83328l13.59872 13.59872c0.8192 0.8192 1.86368 1.35168 2.78528 1.4336l12.77952 1.00352c2.43712 0.18432 2.80576-2.68288 0.63488-4.85376zM744.6528 551.19872l-19.18976-19.18976c-1.16736-1.16736-2.60096-1.9456-3.93216-2.12992l-20.84864-2.9696c-3.93216-0.55296-4.68992 3.8912-1.26976 7.33184l20.64384 20.64384c1.24928 1.24928 2.82624 2.048 4.21888 2.17088l19.39456 1.51552c3.70688 0.26624 4.28032-4.07552 0.98304-7.3728zM672.99328 541.61408l-25.4976-9.25696c-1.55648-0.55296-3.11296-0.83968-4.28032-0.75776l-18.39104 1.29024c-3.46112 0.24576-1.76128 3.19488 2.80576 4.85376l27.4432 9.97376c1.65888 0.6144 3.33824 0.88064 4.54656 0.73728l16.44544-2.00704c3.11296-0.38912 1.3312-3.21536-3.072-4.83328zM770.49856 720.13824l-23.47008-23.47008c-1.4336-1.4336-3.09248-2.47808-4.56704-2.8672l-23.01952-6.144c-4.32128-1.14688-4.54656 3.56352-0.34816 7.76192l25.25184 25.25184c1.536 1.536 3.33824 2.62144 4.87424 2.92864l21.21728 4.36224c4.096 0.83968 4.096-3.76832 0.06144-7.82336z" fill="#FAC80F" opacity=".3" p-id="17547"></path><path d="M167.44448 442.10176l16.91648 16.91648c1.024 1.024 2.4576 1.55648 3.8912 1.45408l22.67136-1.65888c4.25984-0.3072 6.18496-5.48864 3.1744-8.51968l-18.20672-18.20672c-1.10592-1.10592-2.6624-1.6384-4.21888-1.41312l-21.38112 2.94912c-4.07552 0.55296-5.75488 5.55008-2.84672 8.47872zM245.1456 441.09824l14.88896 14.88896c0.90112 0.90112 2.21184 1.31072 3.584 1.1264l21.42208-2.90816c4.03456-0.55296 6.144-5.5296 3.4816-8.192l-16.03584-16.03584c-0.98304-0.98304-2.41664-1.37216-3.87072-1.08544l-20.2752 4.05504c-3.8912 0.77824-5.77536 5.57056-3.19488 8.15104zM203.42784 490.9056l14.88896 14.88896c0.90112 0.90112 2.21184 1.31072 3.584 1.1264l21.42208-2.90816c4.03456-0.55296 6.144-5.5296 3.4816-8.192l-16.03584-16.03584c-0.98304-0.98304-2.41664-1.37216-3.87072-1.08544l-20.2752 4.05504c-3.8912 0.77824-5.77536 5.57056-3.19488 8.15104zM187.47392 370.03264L210.944 393.50272c1.4336 1.4336 3.23584 2.33472 4.93568 2.47808l26.74688 2.41664c5.03808 0.45056 6.32832-5.36576 2.12992-9.56416l-25.25184-25.25184c-1.536-1.536-3.50208-2.4576-5.30432-2.49856L189.2352 360.448c-4.77184-0.12288-5.81632 5.5296-1.76128 9.58464zM267.53024 383.91808l19.18976 19.18976c1.16736 1.16736 2.60096 1.9456 3.93216 2.12992l20.84864 2.9696c3.93216 0.55296 4.68992-3.8912 1.26976-7.33184l-20.64384-20.64384c-1.24928-1.24928-2.82624-2.048-4.21888-2.17088l-19.39456-1.51552c-3.72736-0.26624-4.3008 4.05504-0.98304 7.3728zM322.10944 369.27488l17.87904 20.39808c1.08544 1.2288 2.39616 2.17088 3.584 2.56l18.7392 6.00064c3.52256 1.1264 4.03456-2.78528 0.83968-6.43072l-19.2512-21.95456c-1.16736-1.3312-2.60096-2.31424-3.85024-2.62144l-17.36704-4.44416c-3.31776-0.88064-3.66592 2.9696-0.57344 6.49216zM314.44992 434.33984l19.18976 19.18976c1.16736 1.16736 2.60096 1.9456 3.93216 2.12992l20.84864 2.9696c3.93216 0.55296 4.68992-3.8912 1.26976-7.33184l-20.64384-20.64384c-1.24928-1.24928-2.82624-2.048-4.21888-2.17088l-19.39456-1.51552c-3.70688-0.26624-4.28032 4.05504-0.98304 7.3728zM376.1152 428.05248l19.18976 19.18976c1.16736 1.16736 2.60096 1.9456 3.93216 2.12992l20.84864 2.9696c3.93216 0.55296 4.68992-3.8912 1.26976-7.33184l-20.64384-20.64384c-1.24928-1.24928-2.82624-2.048-4.21888-2.17088l-19.39456-1.51552c-3.72736-0.26624-4.3008 4.07552-0.98304 7.3728zM426.57792 478.5152l12.63616 12.63616c0.75776 0.75776 1.72032 1.26976 2.58048 1.41312l13.74208 1.96608c2.58048 0.36864 3.09248-2.56 0.83968-4.83328l-13.59872-13.59872c-0.8192-0.8192-1.86368-1.35168-2.78528-1.4336l-12.77952-1.00352c-2.43712-0.18432-2.82624 2.6624-0.63488 4.85376zM273.65376 478.63808l19.18976 19.18976c1.16736 1.16736 2.60096 1.9456 3.93216 2.12992l20.84864 2.9696c3.93216 0.55296 4.68992-3.8912 1.26976-7.33184l-20.64384-20.64384c-1.24928-1.24928-2.82624-2.048-4.21888-2.17088l-19.39456-1.51552c-3.72736-0.26624-4.3008 4.05504-0.98304 7.3728zM345.31328 488.20224l25.4976 9.25696c1.55648 0.55296 3.11296 0.83968 4.28032 0.75776l18.39104-1.29024c3.46112-0.24576 1.76128-3.19488-2.80576-4.85376l-27.4432-9.97376c-1.65888-0.6144-3.33824-0.88064-4.54656-0.73728l-16.44544 2.00704c-3.13344 0.38912-1.3312 3.23584 3.072 4.83328zM247.808 309.69856l23.47008 23.47008c1.4336 1.4336 3.09248 2.47808 4.56704 2.8672l23.01952 6.144c4.32128 1.14688 4.54656-3.56352 0.34816-7.76192l-25.25184-25.25184c-1.536-1.536-3.33824-2.62144-4.87424-2.92864l-21.21728-4.36224c-4.096-0.86016-4.11648 3.76832-0.06144 7.82336z" fill="#FAC80F" p-id="17548"></path><path d="M215.98208 704.18432h23.92064c1.45408 0 2.82624-0.63488 3.7888-1.7408l14.86848-17.2032c2.80576-3.23584 0.49152-8.27392-3.7888-8.27392h-25.74336c-1.55648 0-3.03104 0.73728-3.9936 1.98656l-13.04576 17.2032c-2.47808 3.31776-0.14336 8.02816 3.9936 8.02816zM270.19264 648.54016h21.07392c1.26976 0 2.49856-0.63488 3.33824-1.7408l13.08672-17.2032c2.4576-3.23584 0.43008-8.27392-3.33824-8.27392h-22.67136c-1.37216 0-2.68288 0.73728-3.50208 1.98656l-11.4688 17.2032c-2.21184 3.31776-0.14336 8.02816 3.4816 8.02816zM275.92704 713.25696h21.07392c1.26976 0 2.49856-0.63488 3.33824-1.7408l13.08672-17.2032c2.4576-3.23584 0.43008-8.27392-3.33824-8.27392h-22.67136c-1.37216 0-2.68288 0.73728-3.50208 1.98656l-11.4688 17.2032c-2.23232 3.31776-0.16384 8.02816 3.4816 8.02816zM179.17952 639.0784h33.19808c2.00704 0 3.93216-0.63488 5.24288-1.7408l20.62336-17.2032c3.87072-3.23584 0.69632-8.27392-5.24288-8.27392H197.26336c-2.17088 0-4.21888 0.73728-5.5296 1.98656l-18.08384 17.2032c-3.46112 3.29728-0.2048 8.02816 5.5296 8.02816zM245.61664 592.2816h27.136c1.6384 0 3.21536-0.47104 4.28032-1.26976l16.85504-12.63616c3.1744-2.37568 0.55296-6.08256-4.28032-6.08256h-29.20448c-1.78176 0-3.44064 0.53248-4.52608 1.45408l-14.78656 12.63616c-2.82624 2.43712-0.16384 5.89824 4.52608 5.89824zM273.83808 543.3344l27.07456 1.78176c1.6384 0.1024 3.23584-0.16384 4.34176-0.73728l17.48992-9.0112c3.29728-1.69984 0.88064-4.8128-3.95264-5.14048l-29.14304-1.92512c-1.76128-0.12288-3.46112 0.2048-4.58752 0.86016l-15.42144 9.13408c-2.94912 1.78176-0.47104 4.73088 4.1984 5.03808zM314.44992 594.75968h27.136c1.6384 0 3.21536-0.47104 4.28032-1.26976l16.85504-12.63616c3.1744-2.37568 0.55296-6.08256-4.28032-6.08256h-29.20448c-1.78176 0-3.44064 0.53248-4.52608 1.45408l-14.78656 12.63616c-2.82624 2.41664-0.16384 5.89824 4.52608 5.89824zM353.60768 546.7136h27.136c1.6384 0 3.21536-0.47104 4.28032-1.26976l16.85504-12.63616c3.1744-2.37568 0.55296-6.08256-4.28032-6.08256h-29.20448c-1.78176 0-3.44064 0.53248-4.52608 1.45408l-14.78656 12.63616c-2.82624 2.43712-0.16384 5.89824 4.52608 5.89824zM424.96 546.7136h17.87904c1.08544 0 2.10944-0.3072 2.82624-0.83968l11.10016-8.33536c2.08896-1.57696 0.36864-3.9936-2.82624-3.9936h-19.23072c-1.16736 0-2.27328 0.34816-2.9696 0.96256l-9.728 8.33536c-1.90464 1.59744-0.14336 3.87072 2.94912 3.87072zM316.90752 654.92992h27.136c1.6384 0 3.21536-0.47104 4.28032-1.26976l16.85504-12.63616c3.1744-2.37568 0.55296-6.08256-4.28032-6.08256h-29.20448c-1.78176 0-3.44064 0.53248-4.52608 1.45408l-14.78656 12.63616c-2.80576 2.43712-0.14336 5.89824 4.52608 5.89824zM374.35392 611.0208l24.576-11.48928c1.49504-0.69632 2.78528-1.61792 3.56352-2.49856l12.10368-13.9264c2.27328-2.62144-1.00352-3.50208-5.40672-1.45408l-26.46016 12.34944c-1.59744 0.75776-2.99008 1.7408-3.72736 2.68288l-10.21952 13.04576c-1.96608 2.53952 1.3312 3.2768 5.57056 1.29024zM179.17952 553.73824h33.19808c2.00704 0 3.93216-0.43008 5.24288-1.20832l20.62336-11.91936c3.87072-2.2528 0.69632-5.7344-5.24288-5.7344H197.26336c-2.17088 0-4.21888 0.512-5.5296 1.37216l-18.08384 11.91936c-3.46112 2.31424-0.2048 5.57056 5.5296 5.57056z" fill="#FAC80F" opacity=".5" p-id="17549"></path><path d="M436.46976 861.4912l16.91648-16.91648c1.024-1.024 1.55648-2.4576 1.45408-3.8912l-1.65888-22.67136c-0.3072-4.25984-5.48864-6.18496-8.51968-3.1744l-18.20672 18.20672c-1.10592 1.10592-1.6384 2.6624-1.41312 4.21888l2.94912 21.38112c0.55296 4.096 5.55008 5.77536 8.47872 2.84672zM435.46624 783.81056l14.88896-14.88896c0.90112-0.90112 1.31072-2.21184 1.1264-3.584l-2.90816-21.42208c-0.55296-4.03456-5.5296-6.144-8.192-3.4816l-16.03584 16.03584c-0.98304 0.98304-1.37216 2.41664-1.08544 3.87072l4.05504 20.2752c0.77824 3.8912 5.57056 5.77536 8.15104 3.19488zM485.2736 825.52832l14.88896-14.88896c0.90112-0.90112 1.31072-2.21184 1.1264-3.584l-2.90816-21.42208c-0.55296-4.03456-5.5296-6.144-8.192-3.4816l-16.03584 16.03584c-0.98304 0.98304-1.37216 2.41664-1.08544 3.87072l4.05504 20.2752c0.77824 3.8912 5.57056 5.77536 8.15104 3.19488zM364.40064 841.48224l23.47008-23.47008c1.4336-1.4336 2.33472-3.23584 2.47808-4.93568l2.41664-26.74688c0.45056-5.03808-5.36576-6.32832-9.56416-2.12992l-25.25184 25.25184c-1.536 1.536-2.4576 3.50208-2.49856 5.30432l-0.6144 24.96512c-0.14336 4.77184 5.50912 5.79584 9.56416 1.76128zM378.28608 761.42592l19.18976-19.18976c1.16736-1.16736 1.9456-2.60096 2.12992-3.93216l2.9696-20.84864c0.55296-3.93216-3.8912-4.68992-7.33184-1.26976l-20.64384 20.64384c-1.24928 1.24928-2.048 2.82624-2.17088 4.21888l-1.51552 19.39456c-0.26624 3.72736 4.05504 4.28032 7.3728 0.98304zM363.64288 706.84672l20.39808-17.87904c1.2288-1.08544 2.17088-2.39616 2.56-3.584l6.00064-18.7392c1.1264-3.52256-2.78528-4.03456-6.43072-0.83968l-21.95456 19.2512c-1.3312 1.16736-2.31424 2.60096-2.62144 3.85024l-4.44416 17.36704c-0.88064 3.31776 2.9696 3.66592 6.49216 0.57344zM428.70784 714.50624l19.18976-19.18976c1.16736-1.16736 1.9456-2.60096 2.12992-3.93216l2.9696-20.84864c0.55296-3.93216-3.8912-4.68992-7.33184-1.26976l-20.64384 20.64384c-1.24928 1.24928-2.048 2.82624-2.17088 4.21888l-1.51552 19.39456c-0.26624 3.70688 4.05504 4.28032 7.3728 0.98304zM422.42048 652.84096l19.18976-19.18976c1.16736-1.16736 1.9456-2.60096 2.12992-3.93216l2.9696-20.84864c0.55296-3.93216-3.8912-4.68992-7.33184-1.26976l-20.64384 20.64384c-1.24928 1.24928-2.048 2.82624-2.17088 4.21888l-1.51552 19.39456c-0.26624 3.72736 4.07552 4.3008 7.3728 0.98304zM472.8832 602.37824l12.63616-12.63616c0.75776-0.75776 1.26976-1.72032 1.41312-2.58048l1.96608-13.74208c0.36864-2.58048-2.56-3.09248-4.83328-0.83968l-13.59872 13.59872c-0.8192 0.8192-1.35168 1.86368-1.4336 2.78528l-1.00352 12.77952c-0.18432 2.43712 2.68288 2.82624 4.85376 0.63488zM473.00608 755.3024l19.18976-19.18976c1.16736-1.16736 1.9456-2.60096 2.12992-3.93216l2.9696-20.84864c0.55296-3.93216-3.8912-4.68992-7.33184-1.26976l-20.64384 20.64384c-1.24928 1.24928-2.048 2.82624-2.17088 4.21888l-1.51552 19.39456c-0.26624 3.72736 4.07552 4.3008 7.3728 0.98304zM482.57024 683.64288l9.25696-25.4976c0.55296-1.55648 0.83968-3.11296 0.75776-4.28032l-1.29024-18.39104c-0.24576-3.46112-3.19488-1.76128-4.85376 2.80576l-9.97376 27.4432c-0.6144 1.65888-0.88064 3.33824-0.73728 4.54656l2.00704 16.44544c0.38912 3.13344 3.23584 1.3312 4.83328-3.072zM304.06656 781.14816l23.47008-23.47008c1.4336-1.4336 2.47808-3.09248 2.8672-4.56704l6.144-23.01952c1.14688-4.32128-3.56352-4.54656-7.76192-0.34816l-25.25184 25.25184c-1.536 1.536-2.62144 3.33824-2.92864 4.87424l-4.36224 21.21728c-0.86016 4.096 3.76832 4.11648 7.82336 0.06144z" fill="#FAC80F" opacity=".3" p-id="17550"></path><path d="M698.6752 815.63648v-23.92064c0-1.45408-0.63488-2.82624-1.7408-3.7888l-17.2032-14.86848c-3.23584-2.80576-8.27392-0.49152-8.27392 3.7888v25.74336c0 1.55648 0.73728 3.03104 1.98656 3.9936l17.2032 13.04576c3.29728 2.49856 8.02816 0.14336 8.02816-3.9936zM643.03104 761.42592V740.352c0-1.26976-0.63488-2.49856-1.7408-3.33824l-17.2032-13.08672c-3.23584-2.4576-8.27392-0.43008-8.27392 3.33824v22.67136c0 1.37216 0.73728 2.68288 1.98656 3.50208l17.2032 11.4688c3.29728 2.21184 8.02816 0.14336 8.02816-3.4816zM707.72736 755.69152V734.6176c0-1.26976-0.63488-2.49856-1.7408-3.33824l-17.2032-13.08672c-3.23584-2.4576-8.27392-0.43008-8.27392 3.33824v22.67136c0 1.37216 0.73728 2.68288 1.98656 3.50208l17.2032 11.4688c3.31776 2.23232 8.02816 0.16384 8.02816-3.4816zM633.5488 852.43904v-33.19808c0-2.00704-0.63488-3.93216-1.7408-5.24288l-17.2032-20.62336c-3.23584-3.87072-8.27392-0.69632-8.27392 5.24288v35.71712c0 2.17088 0.73728 4.21888 1.98656 5.5296l17.2032 18.08384c3.29728 3.4816 8.02816 0.22528 8.02816-5.50912zM586.752 786.0224v-27.136c0-1.6384-0.47104-3.21536-1.26976-4.28032l-12.63616-16.85504c-2.37568-3.1744-6.08256-0.55296-6.08256 4.28032v29.20448c0 1.78176 0.53248 3.44064 1.45408 4.52608l12.63616 14.78656c2.43712 2.80576 5.89824 0.14336 5.89824-4.52608zM537.8048 757.78048l1.78176-27.07456c0.1024-1.6384-0.16384-3.23584-0.73728-4.34176l-9.0112-17.48992c-1.69984-3.29728-4.8128-0.88064-5.14048 3.95264l-1.92512 29.14304c-0.12288 1.76128 0.2048 3.46112 0.86016 4.58752l9.13408 15.42144c1.78176 2.94912 4.73088 0.49152 5.03808-4.1984zM589.23008 717.18912v-27.136c0-1.6384-0.47104-3.21536-1.26976-4.28032l-12.63616-16.85504c-2.37568-3.1744-6.08256-0.55296-6.08256 4.28032v29.20448c0 1.78176 0.53248 3.44064 1.45408 4.52608l12.63616 14.78656c2.43712 2.80576 5.89824 0.14336 5.89824-4.52608zM541.184 678.03136v-27.136c0-1.6384-0.47104-3.21536-1.26976-4.28032l-12.63616-16.85504c-2.37568-3.1744-6.08256-0.55296-6.08256 4.28032v29.20448c0 1.78176 0.53248 3.44064 1.45408 4.52608l12.63616 14.78656c2.43712 2.80576 5.89824 0.14336 5.89824-4.52608zM541.184 606.67904v-17.87904c0-1.08544-0.3072-2.10944-0.83968-2.82624l-8.33536-11.10016c-1.57696-2.08896-3.9936-0.36864-3.9936 2.82624v19.23072c0 1.16736 0.34816 2.27328 0.96256 2.9696l8.33536 9.728c1.59744 1.88416 3.87072 0.12288 3.87072-2.94912zM649.4208 714.71104v-27.136c0-1.6384-0.47104-3.21536-1.26976-4.28032l-12.63616-16.85504c-2.37568-3.1744-6.08256-0.55296-6.08256 4.28032v29.20448c0 1.78176 0.53248 3.44064 1.45408 4.52608l12.63616 14.78656c2.41664 2.82624 5.89824 0.16384 5.89824-4.52608zM605.51168 657.26464l-11.48928-24.576c-0.69632-1.49504-1.61792-2.78528-2.49856-3.56352l-13.9264-12.10368c-2.62144-2.27328-3.50208 1.00352-1.45408 5.40672l12.34944 26.46016c0.75776 1.59744 1.7408 2.99008 2.68288 3.72736l13.04576 10.21952c2.51904 1.96608 3.25632-1.31072 1.29024-5.57056zM548.22912 852.43904v-33.19808c0-2.00704-0.43008-3.93216-1.20832-5.24288l-11.91936-20.62336c-2.2528-3.87072-5.7344-0.69632-5.7344 5.24288v35.71712c0 2.17088 0.512 4.21888 1.37216 5.5296l11.91936 18.08384c2.29376 3.4816 5.57056 0.22528 5.57056-5.50912z" fill="#FAC80F" opacity=".1" p-id="17551"></path></svg>